<svg width="103" height="103" viewBox="0 0 103 103" fill="none" xmlns="http://www.w3.org/2000/svg">
<path d="M8.6419 80.3486C7.58489 80.3519 6.53768 80.1392 5.56052 79.7227C4.58336 79.3063 3.69553 78.6943 2.9481 77.922C2.20068 77.1498 1.60841 76.2324 1.20537 75.2227C0.802334 74.2131 0.596476 73.131 0.599645 72.0389V0.686768H63.9654V72.0389C16.6301 76.6278 13.0411 80.3486 8.6419 80.3486Z" fill="white"/>
<path d="M8.64244 80.9687C7.50684 80.9712 6.38194 80.7419 5.33232 80.294C4.28271 79.8461 3.32903 79.1884 2.52604 78.3587C1.72304 77.529 1.08653 76.5436 0.653051 75.4591C0.219569 74.3746 -0.00235443 73.2123 1.88354e-05 72.0389V0.68678C1.88354e-05 0.522311 0.0632502 0.364578 0.175804 0.248282C0.288357 0.131985 0.441013 0.0666504 0.600187 0.0666504H63.966C64.1251 0.0666504 64.2778 0.131985 64.3904 0.248282C64.5029 0.364578 64.5661 0.522311 64.5661 0.68678V72.0389C64.5667 72.1941 64.511 72.344 64.4099 72.4588C64.3087 72.5736 64.1696 72.645 64.02 72.659C30.0324 75.9395 18.7193 78.7549 13.2817 80.1006C11.1211 80.6463 9.92681 80.9687 8.64244 80.9687ZM1.20036 1.30691V72.0389C1.19798 73.0494 1.38886 74.0504 1.76202 74.9845C2.13517 75.9185 2.68326 76.7672 3.3748 77.4817C4.06633 78.1963 4.88768 78.7626 5.79167 79.1481C6.69566 79.5337 7.66447 79.7309 8.64244 79.7285C9.84278 79.7285 10.9591 79.4432 13.0297 78.9285C18.4672 77.5766 29.7504 74.7675 63.3958 71.487V1.30691H1.20036Z" fill="#093F68"/>
<path d="M24.6426 17.3992H81.6586C84.7636 17.4008 87.741 18.676 89.9365 20.9446C92.1321 23.2132 93.3663 26.2896 93.3679 29.4979V101.718H39.1486C33.231 101.718 32.6548 96.813 32.6548 94.9526V33.5163C28.9698 26.1492 24.6426 17.3992 24.6426 17.3992Z" fill="white"/>
<path d="M93.3682 102.338H39.1489C32.5471 102.338 32.055 96.6827 32.055 94.9525V33.6713C28.3879 26.329 24.1087 17.6782 24.1087 17.6782C24.0561 17.5839 24.0283 17.477 24.0283 17.3681C24.0283 17.2593 24.0561 17.1523 24.1087 17.0581C24.1628 16.9687 24.238 16.895 24.3273 16.844C24.4165 16.793 24.5169 16.7664 24.6189 16.7666H81.6349C84.9038 16.7666 88.0391 18.1075 90.3517 20.4947C92.6643 22.882 93.9652 26.1202 93.9683 29.4979V101.718C93.9683 101.883 93.9051 102.04 93.7925 102.157C93.68 102.273 93.5273 102.338 93.3682 102.338ZM25.6211 18.0007C26.8215 20.4192 30.2184 27.2654 33.1893 33.2124C33.233 33.3007 33.2557 33.3985 33.2553 33.4977V94.9339C33.2553 96.7943 33.8555 101.079 39.1489 101.079H92.768V29.4979C92.7632 26.4523 91.5898 23.5331 89.5051 21.3801C87.4203 19.2272 84.5944 18.0163 81.6469 18.0131L25.6211 18.0007Z" fill="#093F68"/>
<path d="M93.3683 101.718H95.4329C97.1509 101.717 98.7981 101.01 100.012 99.7546C101.227 98.4987 101.909 96.7962 101.909 95.021V88.1624H43.6323V94.9404C43.6323 98.3201 41.5858 101.576 37.7627 101.576L93.3683 101.718Z" fill="#68E1FD"/>
<path d="M95.4324 102.339H93.3679L37.7623 102.196C37.6031 102.196 37.4504 102.131 37.3379 102.014C37.2253 101.898 37.1621 101.74 37.1621 101.576C37.1621 101.411 37.2253 101.254 37.3379 101.137C37.4504 101.021 37.6031 100.956 37.7623 100.956C41.3633 100.956 43.0318 97.855 43.0318 94.9404V88.1624C43.0318 87.9979 43.095 87.8402 43.2075 87.7239C43.3201 87.6076 43.4727 87.5422 43.6319 87.5422H101.908C102.067 87.5422 102.22 87.6076 102.333 87.7239C102.445 87.8402 102.508 87.9979 102.508 88.1624V95.021C102.507 96.9601 101.761 98.8195 100.435 100.191C99.1081 101.563 97.3092 102.335 95.4324 102.339ZM93.3679 101.098H95.4324C96.9908 101.095 98.4844 100.453 99.5858 99.3143C100.687 98.1751 101.307 96.6312 101.308 95.021V88.7825H44.2321V94.9404C44.2606 96.0914 44.0324 97.2337 43.5651 98.2789C43.0978 99.3242 42.404 100.244 41.5373 100.968L93.3679 101.098Z" fill="#093F68"/>
<path d="M8.64258 80.3487H32.6493V25.6781C32.6786 24.5714 32.493 23.4699 32.1034 22.4387C31.7137 21.4074 31.128 20.4672 30.3809 19.6738C29.6337 18.8803 28.7402 18.2497 27.7531 17.819C26.7661 17.3884 25.7055 17.1665 24.6341 17.1665C23.5626 17.1665 22.5021 17.3884 21.515 17.819C20.528 18.2497 19.6345 18.8803 18.8873 19.6738C18.1401 20.4672 17.5544 21.4074 17.1648 22.4387C16.7751 23.4699 16.5895 24.5714 16.6188 25.6781V72.039C16.6268 74.2336 15.7911 76.3416 14.2954 77.8998C12.7998 79.458 10.7665 80.3389 8.64258 80.3487Z" fill="#68E1FD"/>
<path d="M32.6489 80.9689H8.64216C8.48299 80.9689 8.33033 80.9035 8.21778 80.7872C8.10522 80.6709 8.04199 80.5132 8.04199 80.3487C8.04199 80.1843 8.10522 80.0265 8.21778 79.9102C8.33033 79.7939 8.48299 79.7286 8.64216 79.7286C10.607 79.7171 12.4873 78.9013 13.871 77.4599C15.2547 76.0186 16.029 74.0692 16.0242 72.039V25.6781C15.9939 24.4893 16.1942 23.3063 16.6136 22.1988C17.0329 21.0913 17.6626 20.0819 18.4656 19.2299C19.2687 18.378 20.2287 17.7009 21.2891 17.2386C22.3495 16.7763 23.4887 16.5381 24.6396 16.5381C25.7906 16.5381 26.9298 16.7763 27.9902 17.2386C29.0506 17.7009 30.0107 18.378 30.8137 19.2299C31.6167 20.0819 32.2464 21.0913 32.6657 22.1988C33.0851 23.3063 33.2854 24.4893 33.2551 25.6781V80.3487C33.2551 80.4307 33.2394 80.5118 33.2088 80.5875C33.1783 80.6631 33.1335 80.7318 33.0772 80.7894C33.0208 80.8471 32.9539 80.8927 32.8804 80.9235C32.8069 80.9543 32.7282 80.9697 32.6489 80.9689ZM12.9874 79.7286H32.0487V25.6781C32.0769 24.6536 31.906 23.6337 31.5461 22.6787C31.1861 21.7236 30.6444 20.8529 29.9531 20.1179C29.2618 19.383 28.4348 18.7987 27.5211 18.3998C26.6074 18.0009 25.6256 17.7953 24.6336 17.7953C23.6417 17.7953 22.6599 18.0009 21.7462 18.3998C20.8325 18.7987 20.0056 19.383 19.3142 20.1179C18.6229 20.8529 18.0812 21.7236 17.7212 22.6787C17.3613 23.6337 17.1904 24.6536 17.2186 25.6781V72.039C17.2227 73.5898 16.8352 75.1149 16.0942 76.4635C15.3531 77.8121 14.2843 78.9376 12.9934 79.7286H12.9874Z" fill="#093F68"/>
<path d="M82.9673 50.3652H44.5025C44.3433 50.3652 44.1907 50.2999 44.0781 50.1836C43.9656 50.0673 43.9023 49.9095 43.9023 49.7451V28.1956C43.9023 28.0311 43.9656 27.8734 44.0781 27.7571C44.1907 27.6408 44.3433 27.5754 44.5025 27.5754C44.6617 27.5754 44.8143 27.6408 44.9269 27.7571C45.0394 27.8734 45.1027 28.0311 45.1027 28.1956V49.1249H82.9673C83.1265 49.1249 83.2791 49.1903 83.3917 49.3066C83.5042 49.4229 83.5675 49.5806 83.5675 49.7451C83.5675 49.9095 83.5042 50.0673 83.3917 50.1836C83.2791 50.2999 83.1265 50.3652 82.9673 50.3652Z" fill="#093F68"/>
<path d="M49.873 39.3828H55.5386V49.7452H49.873V39.3828Z" fill="#F56132"/>
<path d="M55.5392 50.3653H49.8736C49.7144 50.3653 49.5618 50.3 49.4492 50.1837C49.3367 50.0674 49.2734 49.9097 49.2734 49.7452V39.3828C49.2734 39.2184 49.3367 39.0606 49.4492 38.9443C49.5618 38.828 49.7144 38.7627 49.8736 38.7627H55.5392C55.6984 38.7627 55.851 38.828 55.9636 38.9443C56.0761 39.0606 56.1394 39.2184 56.1394 39.3828V49.7452C56.1394 49.9097 56.0761 50.0674 55.9636 50.1837C55.851 50.3 55.6984 50.3653 55.5392 50.3653ZM50.4738 49.1251H54.939V40.003H50.4738V49.1251Z" fill="#093F68"/>
<path d="M60.8867 33.7085H66.5523V49.745H60.8867V33.7085Z" fill="#FFBC0E"/>
<path d="M66.5529 50.3654H60.8873C60.7281 50.3654 60.5754 50.3001 60.4629 50.1838C60.3503 50.0675 60.2871 49.9098 60.2871 49.7453V33.7088C60.2871 33.5443 60.3503 33.3866 60.4629 33.2703C60.5754 33.154 60.7281 33.0886 60.8873 33.0886H66.5529C66.712 33.0886 66.8647 33.154 66.9773 33.2703C67.0898 33.3866 67.153 33.5443 67.153 33.7088V49.7453C67.153 49.9098 67.0898 50.0675 66.9773 50.1838C66.8647 50.3001 66.712 50.3654 66.5529 50.3654ZM61.4874 49.1252H65.9527V34.3289H61.4874V49.1252Z" fill="#093F68"/>
<path d="M71.9004 27.5198H77.566V49.7452H71.9004V27.5198Z" fill="#70CC40"/>
<path d="M77.5656 50.3654H71.9C71.7408 50.3654 71.5881 50.3 71.4756 50.1837C71.363 50.0674 71.2998 49.9097 71.2998 49.7452V27.5198C71.2998 27.3553 71.363 27.1976 71.4756 27.0813C71.5881 26.965 71.7408 26.8997 71.9 26.8997H77.5656C77.7247 26.8997 77.8774 26.965 77.9899 27.0813C78.1025 27.1976 78.1657 27.3553 78.1657 27.5198V49.7452C78.1657 49.9097 78.1025 50.0674 77.9899 50.1837C77.8774 50.3 77.7247 50.3654 77.5656 50.3654ZM72.5001 49.1251H76.9654V28.1399H72.5001V49.1251Z" fill="#093F68"/>
<path d="M84.1484 60.1761H44.4713C44.3121 60.1761 44.1594 60.1107 44.0469 59.9944C43.9343 59.8781 43.8711 59.7204 43.8711 59.5559C43.8711 59.3915 43.9343 59.2337 44.0469 59.1174C44.1594 59.0011 44.3121 58.9358 44.4713 58.9358H84.1484C84.3076 58.9358 84.4602 59.0011 84.5728 59.1174C84.6853 59.2337 84.7486 59.3915 84.7486 59.5559C84.7486 59.7204 84.6853 59.8781 84.5728 59.9944C84.4602 60.1107 84.3076 60.1761 84.1484 60.1761Z" fill="#DFEAEF"/>
<path d="M84.1484 67.0965H44.4713C44.3121 67.0965 44.1594 67.0311 44.0469 66.9148C43.9343 66.7985 43.8711 66.6408 43.8711 66.4763C43.8711 66.3119 43.9343 66.1541 44.0469 66.0378C44.1594 65.9215 44.3121 65.8562 44.4713 65.8562H84.1484C84.3076 65.8562 84.4602 65.9215 84.5728 66.0378C84.6853 66.1541 84.7486 66.3119 84.7486 66.4763C84.7486 66.6408 84.6853 66.7985 84.5728 66.9148C84.4602 67.0311 84.3076 67.0965 84.1484 67.0965Z" fill="#DFEAEF"/>
<path d="M84.1484 74.0174H44.4713C44.3121 74.0174 44.1594 73.952 44.0469 73.8357C43.9343 73.7194 43.8711 73.5617 43.8711 73.3972C43.8711 73.2328 43.9343 73.075 44.0469 72.9587C44.1594 72.8424 44.3121 72.7771 44.4713 72.7771H84.1484C84.3076 72.7771 84.4602 72.8424 84.5728 72.9587C84.6853 73.075 84.7486 73.2328 84.7486 73.3972C84.7486 73.5617 84.6853 73.7194 84.5728 73.8357C84.4602 73.952 84.3076 74.0174 84.1484 74.0174Z" fill="#DFEAEF"/>
<path d="M73.0813 80.969H44.4713C44.3121 80.969 44.1594 80.9037 44.0469 80.7874C43.9343 80.6711 43.8711 80.5134 43.8711 80.3489C43.8711 80.1844 43.9343 80.0267 44.0469 79.9104C44.1594 79.7941 44.3121 79.7288 44.4713 79.7288H73.0813C73.2405 79.7288 73.3931 79.7941 73.5057 79.9104C73.6182 80.0267 73.6815 80.1844 73.6815 80.3489C73.6815 80.5134 73.6182 80.6711 73.5057 80.7874C73.3931 80.9037 73.2405 80.969 73.0813 80.969Z" fill="#DFEAEF"/>
<path d="M24.5156 78.9229L27.6773 81.2308L23.5979 87.1972L20.4362 84.8893L24.5156 78.9229Z" fill="#093F68"/>
<path d="M23.6114 87.8212C23.4884 87.8191 23.369 87.7779 23.2693 87.7033L20.1064 85.3965C19.977 85.3016 19.8893 85.1577 19.8623 84.9962C19.8353 84.8347 19.8713 84.6687 19.9624 84.5345L24.0435 78.5626C24.1362 78.4299 24.2759 78.3405 24.4322 78.3137C24.5885 78.287 24.7486 78.3252 24.8778 78.42L28.0407 80.7269C28.17 80.8206 28.2585 80.9632 28.2867 81.1238C28.3109 81.2866 28.2744 81.4527 28.1847 81.5889L24.1036 87.5545C24.058 87.6214 24 87.6783 23.9331 87.7219C23.8661 87.7655 23.7915 87.7951 23.7134 87.8088L23.6114 87.8212ZM21.2888 84.7205L23.4674 86.3081L26.8583 81.347L24.6737 79.7595L21.2888 84.7205Z" fill="#093F68"/>
<path d="M26.8652 73.6377L31.718 77.1801L27.6386 83.1465L22.7858 79.6041L26.8652 73.6377Z" fill="white"/>
<path d="M27.6496 83.7655C27.5273 83.7652 27.4079 83.7262 27.3075 83.6539L22.4462 80.1129C22.3813 80.0659 22.326 80.0061 22.2836 79.9369C22.2412 79.8677 22.2124 79.7906 22.1991 79.7099C22.1857 79.6291 22.1879 79.5465 22.2056 79.4666C22.2233 79.3868 22.2561 79.3114 22.3021 79.2447L26.3833 73.2791C26.4739 73.1454 26.612 73.0541 26.7674 73.0248C26.9249 72.9999 27.0858 73.0376 27.2175 73.1303L32.0729 76.6712C32.2023 76.7661 32.2901 76.91 32.317 77.0715C32.344 77.233 32.308 77.399 32.2169 77.5332L28.1358 83.505C28.0805 83.5852 28.0077 83.6506 27.9231 83.6959C27.8386 83.7412 27.7449 83.765 27.6496 83.7655ZM23.6465 79.4556L27.5176 82.2834L30.9086 77.3223L27.0315 74.4946L23.6465 79.4556Z" fill="#093F68"/>
<path d="M23.9885 86.2212L21.2042 84.1888C20.633 83.7719 19.8428 83.9123 19.4392 84.5025L11.554 96.0352C11.1505 96.6254 11.2864 97.4419 11.8576 97.8589L14.6418 99.8913C15.2131 100.308 16.0033 100.168 16.4068 99.5776L24.292 88.0449C24.6956 87.4547 24.5597 86.6382 23.9885 86.2212Z" fill="white"/>
<path d="M15.3756 100.757C14.9905 100.758 14.6148 100.635 14.3013 100.404L11.5165 98.3696C11.1135 98.074 10.8404 97.6253 10.7572 97.1219C10.6739 96.6185 10.7873 96.1016 11.0724 95.6844L18.9586 84.15C19.2438 83.7327 19.6776 83.4492 20.1648 83.362C20.6521 83.2748 21.1529 83.391 21.5573 83.6849L24.3421 85.719C24.746 86.0136 25.0203 86.4619 25.1047 86.9653C25.1891 87.4688 25.0767 87.9862 24.7922 88.4041L16.906 99.9447C16.732 100.196 16.5023 100.401 16.2361 100.543C15.9699 100.684 15.6749 100.757 15.3756 100.757ZM20.483 84.5717C20.3758 84.5704 20.27 84.5962 20.1747 84.6471C20.0795 84.6979 19.9978 84.7721 19.9369 84.8632L12.0506 96.3976C11.9998 96.4714 11.9635 96.5549 11.944 96.6432C11.9244 96.7315 11.9219 96.823 11.9366 96.9123C11.9512 97.0021 11.9831 97.0879 12.0305 97.1647C12.078 97.2414 12.1399 97.3074 12.2127 97.3588L14.9975 99.3928C15.1417 99.4965 15.3198 99.5371 15.493 99.5058C15.6661 99.4744 15.8202 99.3736 15.9217 99.2254L23.8079 87.691C23.8589 87.6173 23.8952 87.534 23.915 87.4458C23.9347 87.3576 23.9374 87.2662 23.9229 87.1769C23.9084 87.0876 23.877 87.0022 23.8305 86.9255C23.784 86.8487 23.7233 86.7822 23.6519 86.7298L20.8611 84.6896C20.7493 84.612 20.6176 84.571 20.483 84.5717Z" fill="#093F68"/>
<path d="M42.8524 55.5992C40.5956 53.9511 37.9164 53.0315 35.1537 52.9568C32.391 52.8822 29.669 53.6557 27.3318 55.1797C24.9947 56.7036 23.1474 58.9095 22.0237 61.5183C20.8999 64.1271 20.5501 67.0216 21.0186 69.8358C21.4871 72.65 22.7528 75.2575 24.6556 77.3284C26.5584 79.3993 29.0128 80.8406 31.7085 81.47C34.4041 82.0995 37.2199 81.8888 39.7996 80.8646C42.3794 79.8404 44.6072 78.0487 46.2014 75.7162C48.3384 72.5894 49.186 68.7137 48.558 64.9412C47.93 61.1688 45.8777 57.8085 42.8524 55.5992Z" fill="white"/>
<path d="M34.7618 82.4385C32.471 82.4392 30.2123 81.8816 28.1692 80.811C26.1261 79.7404 24.3563 78.187 23.0033 76.2769C21.6503 74.3669 20.7524 72.154 20.3825 69.8181C20.0127 67.4822 20.1812 65.089 20.8745 62.833C21.5678 60.577 22.7663 58.5218 24.3726 56.8343C25.979 55.1467 27.9479 53.8744 30.1194 53.1208C32.291 52.3671 34.604 52.1532 36.8706 52.4966C39.1371 52.84 41.2934 53.7309 43.1641 55.097C45.6892 56.9408 47.5809 59.5671 48.5654 62.5956C49.55 65.6242 49.5763 68.8979 48.6405 71.9429C47.7047 74.9879 45.8555 77.6462 43.3604 79.5331C40.8653 81.42 37.8538 82.4375 34.7618 82.4385ZM34.8038 53.5839C31.6161 53.5827 28.5331 54.7599 26.1121 56.9026C23.6911 59.0453 22.0918 62.0121 21.6032 65.2669C21.1146 68.5218 21.769 71.8498 23.4481 74.6496C25.1272 77.4494 27.7202 79.5361 30.7585 80.5328C33.7967 81.5294 37.0799 81.3702 40.0144 80.0839C42.949 78.7975 45.3414 76.4689 46.7593 73.5189C48.1771 70.5689 48.5269 67.1922 47.7454 63.9989C46.9638 60.8057 45.1026 58.0067 42.498 56.1078C40.2481 54.4635 37.5596 53.5816 34.8038 53.5839Z" fill="#093F68"/>
<path d="M34.786 77.2109C40.0364 77.2109 44.2926 72.8131 44.2926 67.388C44.2926 61.963 40.0364 57.5652 34.786 57.5652C29.5356 57.5652 25.2793 61.963 25.2793 67.388C25.2793 72.8131 29.5356 77.2109 34.786 77.2109Z" fill="white"/>
<path d="M34.7865 77.8308C32.7876 77.8308 30.8335 77.2183 29.1715 76.0708C27.5094 74.9233 26.214 73.2924 25.449 71.3842C24.6841 69.476 24.4839 67.3762 24.8739 65.3505C25.2639 63.3248 26.2265 61.464 27.6399 60.0035C29.0534 58.543 30.8542 57.5484 32.8148 57.1455C34.7753 56.7425 36.8075 56.9494 38.6542 57.7398C40.501 58.5302 42.0795 59.8687 43.1901 61.586C44.3006 63.3033 44.8934 65.3224 44.8934 67.3878C44.8918 70.157 43.8264 72.8122 41.9314 74.7703C40.0363 76.7284 37.4665 77.8292 34.7865 77.8308ZM34.7865 58.1913C33.0247 58.1913 31.3025 58.7312 29.8377 59.7427C28.3729 60.7541 27.2314 62.1918 26.5574 63.8737C25.8835 65.5557 25.7075 67.4063 26.0516 69.1917C26.3958 70.977 27.2446 72.6167 28.4908 73.9035C29.737 75.1903 31.3245 76.0663 33.0526 76.4207C34.7807 76.7751 36.5717 76.5919 38.1991 75.8944C39.8264 75.197 41.217 74.0165 42.1949 72.5023C43.1729 70.9881 43.6942 69.2082 43.693 67.3878C43.6898 64.9487 42.7503 62.6105 41.0805 60.8863C39.4107 59.1622 37.1472 58.1929 34.7865 58.1913Z" fill="#093F68"/>
<path d="M34.7851 67.3879H44.2918C44.288 69.4555 43.6518 71.4689 42.474 73.1404C41.2962 74.8119 39.6372 76.0559 37.734 76.6945C35.8308 77.3331 33.781 77.3338 31.8774 76.6963C29.9739 76.0588 28.3142 74.8158 27.1354 73.145C25.9567 71.4742 25.3194 69.4612 25.3145 67.3936C25.3096 65.326 25.9374 63.3098 27.1083 61.6331C28.2791 59.9564 29.9329 58.7051 31.8334 58.058C33.7339 57.4109 35.7837 57.4012 37.6899 58.0302L34.7851 67.3879Z" fill="#68E1FD"/>
<path d="M34.7857 77.8311C33.4381 77.865 32.0976 77.6201 30.843 77.1107C29.5884 76.6013 28.4452 75.8377 27.4804 74.8649C26.5157 73.8922 25.7491 72.7298 25.2257 71.4463C24.7023 70.1628 24.4326 68.784 24.4326 67.3912C24.4326 65.9984 24.7023 64.6197 25.2257 63.3362C25.7491 62.0526 26.5157 60.8903 27.4804 59.9175C28.4452 58.9447 29.5884 58.1811 30.843 57.6717C32.0976 57.1623 33.4381 56.9174 34.7857 56.9513C35.8264 56.9489 36.8612 57.1142 37.8526 57.4412C37.928 57.4659 37.9979 57.5057 38.0583 57.5584C38.1188 57.611 38.1686 57.6755 38.2048 57.7481C38.2411 57.8208 38.2631 57.9 38.2696 57.9815C38.2761 58.0629 38.2669 58.1448 38.2427 58.2226L35.608 66.768H44.2924C44.4516 66.768 44.6042 66.8333 44.7168 66.9496C44.8293 67.0659 44.8926 67.2237 44.8926 67.3881C44.8894 70.1568 43.8235 72.8111 41.9288 74.7688C40.0341 76.7265 37.4652 77.8278 34.7857 77.8311ZM34.7857 58.1916C33.0493 58.1908 31.3506 58.7144 29.8984 59.6981C28.4462 60.6817 27.304 62.0826 26.6123 63.7282C25.9206 65.3739 25.7095 67.1925 26.005 68.9605C26.3005 70.7285 27.0898 72.3687 28.2756 73.6793C29.4615 74.9898 30.9922 75.9137 32.6796 76.3371C34.3669 76.7605 36.1373 76.6651 37.7728 76.0625C39.4084 75.4599 40.8378 74.3765 41.8852 72.9455C42.9326 71.5145 43.5524 69.7984 43.6682 68.0083H34.7857C34.6892 68.0129 34.593 67.9934 34.5053 67.9513C34.4177 67.9093 34.3411 67.846 34.2822 67.7669C34.2232 67.6877 34.1837 67.595 34.1669 67.4967C34.1501 67.3984 34.1565 67.2973 34.1856 67.2021L36.8863 58.4583C36.1991 58.282 35.4938 58.1925 34.7857 58.1916Z" fill="#093F68"/>
</svg>
