<svg width="50" height="71" viewBox="0 0 50 71" fill="none" xmlns="http://www.w3.org/2000/svg">
<path d="M8.5127 16.8448C8.5127 7.8236 15.7515 0.5 24.6412 0.5C33.5306 0.5 40.7692 7.8231 40.7697 16.8439C40.7352 25.6931 33.9093 32.8403 25.2273 33.1542H25.1663H25.0301C24.78 33.1176 24.4843 33.1202 24.1999 33.1531C15.3183 32.8241 8.5127 25.6789 8.5127 16.8448Z" fill="#68E1FD" stroke="black"/>
<path d="M7.14264 65.5079L7.14127 65.507C2.83205 62.5968 0.5 58.6944 0.5 54.5378C0.5 50.3808 2.83236 46.4432 7.17594 43.4979C11.9957 40.2664 18.3343 38.6362 24.6888 38.6362C31.044 38.6362 37.3648 40.2667 42.1489 43.4976C46.4547 46.4055 48.7561 50.3076 48.7902 54.469C48.7894 58.6608 46.4568 62.563 42.1468 65.5084C37.3453 68.7739 31.0077 70.4216 24.645 70.4216C18.282 70.4216 11.9442 68.7738 7.14264 65.5079ZM27.7706 61.6303V57.6975H31.6465C33.364 57.6975 34.772 56.2618 34.772 54.5378C34.772 52.8138 33.364 51.3781 31.6465 51.3781H27.7706V47.4452C27.7706 45.7212 26.3625 44.2855 24.645 44.2855C22.9275 44.2855 21.5195 45.7212 21.5195 47.4452V51.3781H17.6436C15.9262 51.3781 14.5181 52.8138 14.5181 54.5378C14.5181 56.2618 15.9262 57.6975 17.6436 57.6975H21.5195V61.6303C21.5195 63.3543 22.9275 64.79 24.645 64.79C26.3625 64.79 27.7706 63.3543 27.7706 61.6303Z" fill="#68E1FD" stroke="black"/>
</svg>
