<svg width="27" height="27" viewBox="0 0 27 27" fill="none" xmlns="http://www.w3.org/2000/svg">
<path d="M10.9675 24.4286H15.842C15.842 25.1106 15.5852 25.7646 15.1281 26.2468C14.6711 26.7291 14.0512 27 13.4048 27C12.7584 27 12.1384 26.7291 11.6814 26.2468C11.2243 25.7646 10.9675 25.1106 10.9675 24.4286ZM24.3723 21.8571V23.1429H2.43723V21.8571L4.87446 19.2857V11.5714C4.87446 7.58571 7.34825 4.07571 10.9675 2.94429C10.9675 2.81571 10.9675 2.7 10.9675 2.57143C10.9675 1.88944 11.2243 1.23539 11.6814 0.753154C12.1384 0.270917 12.7584 0 13.4048 0C14.0512 0 14.6711 0.270917 15.1281 0.753154C15.5852 1.23539 15.842 1.88944 15.842 2.57143V2.94429C19.4613 4.07571 21.9351 7.58571 21.9351 11.5714V19.2857L24.3723 21.8571ZM19.4978 11.5714C19.4978 9.86647 18.8559 8.23133 17.7132 7.02574C16.5705 5.82015 15.0207 5.14286 13.4048 5.14286C11.7888 5.14286 10.239 5.82015 9.09631 7.02574C7.95364 8.23133 7.31169 9.86647 7.31169 11.5714V20.5714H19.4978V11.5714ZM22.849 1.53L21.1186 3.35571C23.2024 5.52857 24.3723 8.48571 24.3723 11.5714H26.8095C26.8095 7.80429 25.3959 4.17857 22.849 1.53ZM0 11.5714H2.43723C2.43723 8.48571 3.6071 5.52857 5.69093 3.35571L3.9605 1.53C1.41359 4.17857 0 7.80429 0 11.5714Z" fill="white"/>
<circle cx="22" cy="20" r="5" fill="#FC3131"/>
<path d="M20.49 22L20.259 21.426L21.708 19.823C21.7873 19.739 21.8713 19.641 21.96 19.529C22.0533 19.417 22.142 19.3027 22.226 19.186C22.3147 19.0647 22.3847 18.948 22.436 18.836C22.4873 18.7193 22.513 18.6143 22.513 18.521C22.513 18.4137 22.4897 18.3203 22.443 18.241C22.3963 18.157 22.3287 18.0917 22.24 18.045C22.1513 17.9983 22.0417 17.975 21.911 17.975C21.7897 17.975 21.6753 18.0077 21.568 18.073C21.4607 18.1337 21.3603 18.2247 21.267 18.346C21.1737 18.4673 21.092 18.6143 21.022 18.787L20.238 18.346C20.3313 18.0753 20.4643 17.8397 20.637 17.639C20.8097 17.4383 21.015 17.282 21.253 17.17C21.491 17.058 21.7453 17.002 22.016 17.002C22.3007 17.0067 22.5573 17.0673 22.786 17.184C23.0147 17.3007 23.1943 17.464 23.325 17.674C23.4557 17.884 23.521 18.1267 23.521 18.402C23.521 18.5047 23.5093 18.6097 23.486 18.717C23.4673 18.8243 23.4323 18.9363 23.381 19.053C23.3343 19.1697 23.2713 19.2933 23.192 19.424C23.1173 19.55 23.024 19.6853 22.912 19.83C22.8047 19.97 22.681 20.117 22.541 20.271L21.428 21.482L21.288 21.055H23.724V22H20.49Z" fill="white"/>
</svg>
