<svg width="360" height="116" viewBox="0 0 360 116" fill="none" xmlns="http://www.w3.org/2000/svg">
<path d="M-286.1 228.552C-232.915 249.483 -174.881 5.66644 -117.431 5.66644C-59.9806 5.66644 -27.1572 54.8241 30.5074 54.8241C88.1721 54.8241 96.4704 5.66644 154.135 5.66644C211.8 5.66644 271.307 83.095 328.329 83.2784" fill="#1790F7" fill-opacity="0.8"/>
<path d="M-204.81 222.582C-142.281 222.582 -81.6004 5.66661 -18.4833 5.66661C44.6338 5.66661 65.4449 75.3184 128.797 75.3184C192.15 75.3184 238.583 19.597 301.935 19.597C365.288 19.597 440.931 222.312 503.578 222.582" fill="#1790F7"/>
<path d="M-134.076 188.751C-71.5478 188.751 -3.47693 0.691513 59.6402 0.691513C122.757 0.691513 152.774 85.9946 216.127 85.9946C279.479 85.9946 287.146 35.5174 350.499 35.5174C413.851 35.5174 447.266 188.481 509.912 188.751" fill="#1790F7" fill-opacity="0.51"/>
</svg>
